<?xml version="1.0" encoding="UTF-8"?>
<!-- Generated by Pixelmator Pro 3.7 -->
<svg width="473" height="359" viewBox="0 0 473 359" xmlns="http://www.w3.org/2000/svg">
    <path id="Shape-copy" fill="#287578" fill-rule="evenodd" stroke="none" d="M 0.5 241.5 C 1.077118 215.150024 1.452118 207.275024 1.705658 207 C 1.959198 206.724976 55.791656 206.454224 121.333313 206.398315 C 186.875 206.342407 241.784973 206.117371 243.35553 205.898315 C 245.923462 205.5401 247.771973 202.830811 261.707581 179 C 270.230652 164.424988 277.431335 151.9375 277.709045 151.25 C 278.110107 150.257202 264.016052 150 209.211243 150 C 140.208496 150 140.208496 150 137.049133 154.923462 C 135.311462 157.631348 131.987518 161.600342 129.662537 163.743408 C 127.337585 165.886475 122.749878 168.958435 119.467682 170.569946 C 114.016907 173.246216 112.588715 173.5 102.978973 173.5 C 93.140869 173.5 92.031586 173.2901 85.889526 170.266357 C 81.776672 168.241638 77.371613 164.971436 74.106415 161.519043 C 71.238373 158.48645 67.68103 153.416626 66.201233 150.252625 C 63.843994 145.212585 63.51004 143.258667 63.505371 134.478943 C 63.500397 125.181274 63.735413 123.979736 66.761536 117.832825 C 68.996124 113.293762 72.044922 109.316406 76.444489 105.200806 C 80.726227 101.195435 84.80426 98.444336 88.682983 96.944519 C 93.112579 95.231628 96.527344 94.701782 103 94.7229 C 109.352203 94.743652 113.016083 95.323608 117.5 97.018127 C 122.258362 98.816345 125.110321 100.91156 131.281555 107.142822 C 139.06311 115 139.06311 115 158.281555 114.990112 L 177.5 114.980225 L 193.5 86.936829 C 202.299988 71.512939 209.649994 58.467346 209.833344 57.946655 C 210.041656 57.355042 170.963867 57 105.628937 57 L 1.091187 57 L 0.795593 39.75 C 0.633026 30.262512 0.639069 22.162476 0.809021 21.75 C 0.978973 21.337524 76.227692 21 168.028381 21 L 334.938721 21 L 340.97522 14.944702 C 344.910339 10.997375 349.359497 7.777283 353.755859 5.694702 C 359.966431 2.752747 361.305237 2.5 370.678284 2.5 C 380.160645 2.5 381.311035 2.724121 387.503784 5.777893 C 391.15979 7.58075 396.392639 11.297424 399.132385 14.03717 C 402.035217 16.940002 405.446106 21.831116 407.306885 25.759277 C 410.179138 31.822693 410.495667 33.404297 410.456665 41.5 C 410.422729 48.539673 409.897278 51.806885 408.044189 56.5 C 406.34906 60.792908 403.942993 64.226685 399.587524 68.568848 C 396.23938 71.906738 390.978149 75.864868 387.895935 77.364807 C 384.124695 79.200012 379.927002 80.290161 375.061035 80.69812 C 370.913879 81.045776 365.756409 80.825623 362.967285 80.181824 C 360.292725 79.564453 356.071045 78.103516 353.585815 76.935364 C 351.100647 75.767151 346.949829 72.94751 344.361816 70.669434 C 341.773743 68.391357 338.371033 64.496277 336.800171 62.013733 C 335.22937 59.531189 332.944153 57.207336 331.722046 56.84967 C 330.499939 56.492004 322.71051 56.15448 314.412231 56.09967 C 306.113953 56.044861 287.812988 56.296204 273.743469 56.658264 L 248.162476 57.316467 L 235.096741 80.908264 C 227.910583 93.883728 220.664917 106.862488 218.99527 109.75 L 215.959534 115 L 342.229797 115.01532 C 411.678406 115.023743 468.995972 115.361206 469.602173 115.76532 C 470.290894 116.224426 470.921692 122.783203 471.283752 133.25 L 471.863098 150 L 394.628052 150 L 317.393005 150 L 302.256104 177.75 L 287.119202 205.5 L 296.30957 205.80426 C 301.364319 205.971619 330.756226 206.100159 361.624939 206.089844 C 417.749878 206.071167 417.749878 206.071167 418.363953 209.785583 C 418.70166 211.828491 418.982971 219.912476 418.989014 227.75 L 419 242 L 326.130859 242 L 233.261658 242 L 217.507111 269.75 C 208.842102 285.012512 201.535095 298.0625 201.269287 298.75 C 200.884125 299.746216 228.216339 300 335.893005 300 L 471 300 L 471 317.5 L 471 335 L 305.248291 335 C 139.496552 335 139.496552 335 137.116547 339.486389 C 135.807526 341.953888 132.531433 346.03537 129.836334 348.556335 C 127.141205 351.077271 122.363007 354.342865 119.218079 355.813171 C 114.463989 358.035736 111.898407 358.525482 104 358.718079 C 97.890076 358.867065 93.231506 358.466217 90.945313 357.594818 C 88.990265 356.84964 85.615265 355.333008 83.445313 354.224518 C 81.275391 353.115997 77.320343 350.024536 74.656342 347.354523 C 71.99234 344.68454 68.392334 339.652771 66.656342 336.172821 C 63.70694 330.260437 63.5 329.145905 63.5 319.172791 C 63.5 309.68634 63.797882 307.864441 66.180054 302.781921 C 67.654083 299.637024 70.964355 294.81427 73.536194 292.064758 C 76.108063 289.315247 80.148834 285.930725 82.515717 284.54364 C 84.882568 283.156555 89.429352 281.341797 92.619659 280.510864 C 95.809967 279.679871 100.463165 279.005371 102.960114 279.011841 C 105.457031 279.018372 109.868805 279.654297 112.764008 280.425049 C 115.65918 281.19574 119.998138 282.980957 122.406067 284.39209 C 124.814026 285.803223 129.473083 289.892334 132.759552 293.478882 C 138.734955 300 138.734955 300 149.75058 300 C 160.766205 300 160.766205 300 169.856812 284.25 C 174.856659 275.587524 182.2883 262.875 186.371582 256 C 193.795715 243.5 193.795715 243.5 191.147858 242.717651 C 189.691528 242.287354 146.200012 241.837341 94.5 241.717651 L 0.5 241.5 Z"/>
</svg>
